# xmcd CD database file
#
# Track frame offsets:
#	183
#	61795
#	87063
#	122975
#	173040
#	227245
#
# Disc length: 3814 seconds
#
# Revision: 0
# Processed by: cddbd v1.5.2PL0 Copyright (c) Steve Scherf et al.
# Submitted via: CDex 1.51
#
DISCID=440ee406
DTITLE=Le Quintette Popolien - Mes Dix Doigts Dans Ton Nez
DYEAR=1989
DGENRE=Jazz
TTITLE0=Mes Dix Doigts Dans Ton Nez
TTITLE1=La Valse Du Bovairon
TTITLE2=Neige D'hiver
TTITLE3=Bébé Bourdon
TTITLE4=St.Hippolyte
TTITLE5=Locomélodie émotive
EXTD=YEAR: 1989
EXTT0=
EXTT1=
EXTT2=
EXTT3=
EXTT4=
EXTT5=
PLAYORDER=
